<svg width="120" height="32" fill="white">
  <g clip-path="url(#a)">
    <path fill="white" d="M63.579 25.738V11.946c0-.923.428-1.383 1.283-1.383.856 0 1.243.46 1.243 1.383v14.539c0 1.22-.56 1.83-1.683 1.83h-5.237c-2.295 0-3.836-.749-4.616-2.244-.563-1.07-.844-2.526-.844-4.37v-9.755c0-.923.415-1.383 1.244-1.383.83 0 1.282.46 1.282 1.383v9.72c0 1.543.257 2.607.771 3.194.51.584 1.439.878 2.784.878h3.773ZM78.71 13.14h-4.068c-2.173 0-3.258 1.125-3.258 3.364v5.871c0 2.24 1.085 3.362 3.258 3.362h4.068V13.141Zm0-2.575V4.77c0-.923.427-1.383 1.282-1.383.854 0 1.247.46 1.247 1.383v21.977c0 1.046-.514 1.568-1.539 1.568h-5.093c-2.003 0-3.462-.454-4.376-1.364-.917-.91-1.376-2.373-1.376-4.39V16.32c0-1.994.438-3.451 1.319-4.372.881-.922 2.307-1.383 4.287-1.383h4.25ZM93.582 25.738V11.946c0-.923.424-1.383 1.285-1.383.86 0 1.244.46 1.244 1.383v14.539c0 1.22-.565 1.83-1.685 1.83h-5.24c-2.299 0-3.836-.749-4.618-2.244-.561-1.07-.842-2.526-.842-4.37v-9.755c0-.923.418-1.383 1.246-1.383.829 0 1.284.46 1.284 1.383v9.72c0 1.543.256 2.607.77 3.194.51.584 1.44.878 2.781.878h3.775ZM117.272 25.623v-5.007h-3.48c-2.493 0-3.74.836-3.74 2.502 0 .776.296 1.384.88 1.832.587.45 1.369.673 2.347.673h3.993Zm0-7.587v-1.045c0-1.395-.194-2.386-.585-2.972-.391-.585-1.075-.88-2.052-.88h-1.813c-.932 0-1.391-.42-1.391-1.269s.461-1.307 1.391-1.307h1.374c1.928 0 3.346.466 4.248 1.4.907.933 1.356 2.399 1.356 4.392v9.64c0 .875-.118 1.478-.363 1.815-.25.336-.676.504-1.284.504h-4.433c-1.664 0-2.946-.262-3.847-.789-.758-.446-1.369-1.081-1.833-1.903-.464-.823-.695-1.668-.695-2.542 0-.874.231-1.742.695-2.541a4.947 4.947 0 0 1 1.847-1.85c.77-.435 1.789-.654 3.063-.654h4.322v.001ZM108.297 10.593h-4.169c-1.932 0-3.348.467-4.251 1.4-.035.037-.06.086-.093.125-.835.936-1.264 2.351-1.264 4.267v9.64c0 .875.126 1.479.369 1.815.184.25.506.377.895.44.391-.063.715-.187.901-.44.24-.336.365-.94.365-1.814v-9.007c0-1.397.196-2.387.587-2.972.391-.584 1.074-.88 2.05-.88h4.612c.927 0 1.391-.421 1.391-1.27 0-.848-.466-1.307-1.391-1.307M54.951 2.964h-5.127c-1.93 0-3.346.467-4.252 1.4-.035.037-.059.087-.092.125-.835.936-1.264 2.351-1.264 4.267v17.302c0 .873.122 1.479.367 1.813.181.253.532.373.92.435.378-.06.695-.186.873-.435.245-.334.369-.94.369-1.813v-12.92h3.625c.927 0 1.394-.422 1.394-1.271 0-.848-.467-1.307-1.394-1.307h-3.625V9.387c0-1.394.193-2.384.586-2.971.39-.584 1.075-.878 2.05-.878h5.57c.93 0 1.391-.422 1.391-1.271 0-.85-.463-1.308-1.39-1.308M22.19 28.878l2.585 2.639c.186.19.44.297.704.297h4.71c.55 0 .996-.455.996-1.016V19.703l-8.994 9.175Z" />
    <path fill="white" d="M27.852 9.937 15.737 22.296 9.361 15.79l12.115-12.36-1.202-1.226L18.113 0H30.19c.55 0 .996.455.996 1.015v12.32l-2.01-2.064-1.323-1.334h-.002Z" />
    <path fill="white" d="M.002 1.013v11.159L11.949 0H.995C.445 0 .002.453.002 1.013ZM.997 31.814h12.015L0 18.54v12.258c0 .563.446 1.017.997 1.017Z" />
  </g>
  <defs>
    <clipPath id="a">
      <path fill="white" d="M0 0h120v32H0z" />
    </clipPath>
  </defs>
</svg>